<?xml version="1.0" encoding="UTF-8" standalone="no"?>
<!DOCTYPE svg PUBLIC "-//W3C//DTD SVG 1.1//EN" "http://www.w3.org/Graphics/SVG/1.1/DTD/svg11.dtd">
<svg width="100%" height="100%" viewBox="0 0 2836 2094" version="1.1" xmlns="http://www.w3.org/2000/svg" xmlns:xlink="http://www.w3.org/1999/xlink" xml:space="preserve" xmlns:serif="http://www.serif.com/" style="fill-rule:evenodd;clip-rule:evenodd;stroke-linejoin:round;stroke-miterlimit:2;">
    <g transform="matrix(1,0,0,1,1.13687e-13,-120.586)">
        <g transform="matrix(0.397614,0,0,0.470588,48.3758,-255.226)">
            <rect x="-121.665" y="798.649" width="2014.13" height="42.324" style="fill:white;"/>
        </g>
        <g transform="matrix(1.0508,0,0,0.470588,127.846,868.226)">
            <rect x="-121.665" y="798.649" width="2014.13" height="42.324" style="fill:white;"/>
        </g>
        <g transform="matrix(0.847774,0,0,0.470588,103.144,953.807)">
            <rect x="-121.665" y="798.649" width="2014.13" height="42.324" style="fill:white;"/>
        </g>
        <g transform="matrix(0.995382,0,0,0.470588,121.103,1498.42)">
            <rect x="-121.665" y="798.649" width="2014.13" height="42.324" style="fill:white;"/>
        </g>
        <g transform="matrix(0.139291,0,0,0.470588,16.9468,522.789)">
            <rect x="-121.665" y="798.649" width="2014.13" height="42.324" style="fill:white;"/>
        </g>
        <g transform="matrix(0.239529,0,0,0.470588,607.583,708.242)">
            <rect x="-121.665" y="798.649" width="2014.13" height="42.324" style="fill:white;"/>
        </g>
        <g transform="matrix(0.218508,0,0,0.470588,1068.7,-5.62253)">
            <rect x="-121.665" y="798.649" width="2014.13" height="42.324" style="fill:white;"/>
        </g>
        <g transform="matrix(1,0,0,1,7.05192,-463.824)">
            <circle cx="1485.88" cy="842.125" r="47.303" style="fill:white;"/>
        </g>
        <g transform="matrix(0.218508,0,0,0.470588,2375.07,610.322)">
            <rect x="-121.665" y="798.649" width="2014.13" height="42.324" style="fill:white;"/>
        </g>
        <g transform="matrix(1,0,0,1,1302.71,153.99)">
            <circle cx="1485.88" cy="842.125" r="47.303" style="fill:white;"/>
        </g>
        <g transform="matrix(1,0,0,1,-429.645,251.911)">
            <circle cx="1485.88" cy="842.125" r="47.303" style="fill:white;"/>
        </g>
        <g transform="matrix(-0.126843,-0.126843,0.332756,-0.332756,760.962,640.47)">
            <rect x="-121.665" y="798.649" width="2014.13" height="42.324" style="fill:white;"/>
        </g>
        <g transform="matrix(-0.15302,-0.0936102,0.245575,-0.40143,363.696,1413.21)">
            <rect x="-121.665" y="798.649" width="2014.13" height="42.324" style="fill:white;"/>
        </g>
        <g transform="matrix(0.616313,0,0,0.470588,74.9837,1595.55)">
            <rect x="-121.665" y="798.649" width="2014.13" height="42.324" style="fill:white;"/>
        </g>
        <g transform="matrix(0.239529,0,0,0.470588,1568.24,1781.16)">
            <rect x="-121.665" y="798.649" width="2014.13" height="42.324" style="fill:white;"/>
        </g>
        <g transform="matrix(1,0,0,1,518.948,1324.83)">
            <circle cx="1485.88" cy="842.125" r="47.303" style="fill:white;"/>
        </g>
        <g transform="matrix(-0.15302,-0.0936102,0.245575,-0.40143,1324.39,2486.13)">
            <rect x="-121.665" y="798.649" width="2014.13" height="42.324" style="fill:white;"/>
        </g>
        <g transform="matrix(0.239529,0,0,0.470588,2033.97,1139.42)">
            <rect x="-121.665" y="798.649" width="2014.13" height="42.324" style="fill:white;"/>
        </g>
        <g transform="matrix(1,0,0,1,996.74,683.087)">
            <circle cx="1485.88" cy="842.125" r="47.303" style="fill:white;"/>
        </g>
        <g transform="matrix(-0.15302,-0.0936102,0.245575,-0.40143,1790.08,1844.38)">
            <rect x="-121.665" y="798.649" width="2014.13" height="42.324" style="fill:white;"/>
        </g>
        <g transform="matrix(0.239529,0,0,-0.470588,2331.29,2084.39)">
            <rect x="-121.665" y="798.649" width="2014.13" height="42.324" style="fill:white;"/>
        </g>
        <g transform="matrix(1,0,0,-1,1294.06,2540.72)">
            <circle cx="1485.88" cy="842.125" r="47.303" style="fill:white;"/>
        </g>
        <g transform="matrix(-0.15302,0.0936102,0.245575,0.40143,2087.4,1379.42)">
            <rect x="-121.665" y="798.649" width="2014.13" height="42.324" style="fill:white;"/>
        </g>
        <g transform="matrix(0.122339,-0.131192,0.344166,0.32094,1841.9,978.114)">
            <rect x="-121.665" y="798.649" width="2014.13" height="42.324" style="fill:white;"/>
        </g>
    </g>
</svg>
